<?xml version="1.0" encoding="UTF-8"?>
<svg id="Layer_2" data-name="Layer 2" xmlns="http://www.w3.org/2000/svg" viewBox="0 0 261.66 232.47">
  <defs>
    <style>
      .cls-1 {
        fill: #da4b45;
      }

      .cls-1, .cls-2, .cls-3, .cls-4, .cls-5 {
        stroke-width: 0px;
      }

      .cls-2 {
        fill: #a1343b;
      }

      .cls-3 {
        fill: #231f20;
      }

      .cls-4 {
        fill: #3277ab;
      }

      .cls-5 {
        fill: #f8f5ee;
      }
    </style>
  </defs>
  <g id="Layer_1-2" data-name="Layer 1">
    <g>
      <path class="cls-3" d="M0,190.89h10.57v3.02h-3.21v10.34h8.86v-10.34h-3.21v-3.02h10.57v3.02h-3.21v26.7h3.21v2.98h-10.57v-2.98h3.21v-12.91H7.36v12.91h3.21v2.98H0v-2.98h3.26v-26.7H0v-3.02Z"/>
      <path class="cls-3" d="M39.56,217.17c-.2,2.22-.87,3.91-1.99,5.06s-2.67,1.73-4.64,1.73c-2.17,0-3.83-.71-4.97-2.12s-1.71-3.47-1.71-6.18v-4.41c0-2.88.58-5.11,1.73-6.69s2.77-2.38,4.85-2.38c2.22,0,3.92.75,5.1,2.26s1.77,3.69,1.77,6.55v2.84h-9.7v1.36c0,1.97.25,3.4.76,4.3s1.31,1.35,2.4,1.35c.89,0,1.59-.3,2.1-.91s.83-1.53.97-2.77h3.33ZM30,211.12h6.09v-1.36c0-1.39-.26-2.48-.79-3.27s-1.24-1.18-2.14-1.18c-1.09,0-1.89.4-2.4,1.21s-.76,2.1-.76,3.88v.73Z"/>
      <path class="cls-3" d="M53.23,220.99c-.81,1.06-1.61,1.82-2.38,2.29s-1.64.69-2.61.69c-1.86,0-3.24-.79-4.15-2.38s-1.36-4.04-1.36-7.35v-3.89c0-2.62.52-4.64,1.57-6.05s2.54-2.11,4.48-2.11c1,0,1.88.24,2.62.71s1.42,1.23,2.02,2.26v-2.55h5.3v2.88h-2.23v15.3h2.23v2.79h-5.48v-2.6ZM46.41,215.62c0,1.86.21,3.18.64,3.96s1.14,1.17,2.14,1.17c1.09,0,1.97-.5,2.62-1.51s.98-2.36.98-4.04v-4.62c0-1.7-.29-2.98-.86-3.84s-1.41-1.29-2.52-1.29-1.83.39-2.31,1.17-.71,2.07-.71,3.87v5.13Z"/>
      <path class="cls-3" d="M61.24,223.59v-2.88h2.2v-26.88h-2.2v-2.93h5.91v29.81h2.2v2.88h-8.11Z"/>
      <path class="cls-3" d="M79.95,223.73c-.44.08-.88.14-1.31.18s-.86.06-1.27.06c-1.36,0-2.3-.32-2.82-.97s-.79-1.89-.79-3.71v-13.78h-2.2v-2.88h2.2v-7.59h3.7v7.59h2.55v2.88h-2.55v13.15c0,1.05.11,1.68.33,1.89s.73.32,1.55.32h.63l-.02,2.88Z"/>
      <path class="cls-3" d="M82.22,190.89h5.91v13.92c.67-.84,1.46-1.49,2.36-1.95s1.87-.68,2.92-.68c1.73,0,2.99.46,3.77,1.39s1.17,2.43,1.17,4.49v12.63h2.2v2.88h-8.11v-2.88h2.23v-11.81c0-1.27-.18-2.18-.54-2.74s-.94-.84-1.73-.84-1.55.18-2.25.55-1.38.93-2.02,1.7v13.15h2.2v2.88h-8.11v-2.88h2.2v-26.88h-2.2v-2.93Z"/>
      <path class="cls-3" d="M104.46,232.47v-2.88h2.39l2.53-7.05-5.51-17.04h-1.97v-2.88h7.73v2.88h-2.11l3.68,12.33,4.08-12.33h-2.11v-2.88h7.5v2.88h-2.11l-8.41,24.09h2.41v2.88h-8.11Z"/>
      <path class="cls-3" d="M121.88,223.59v-2.98h3.26v-26.7h-3.26v-3.02h10.57v3.02h-3.21v26.55h9.68v-6.4h3.66v9.52h-20.7Z"/>
      <path class="cls-3" d="M145.01,223.59v-2.88h2.23v-15.21h-2.23v-2.88h5.91v18.09h2.23v2.88h-8.13ZM145.78,198.58v-4.08h5.13v4.08h-5.13Z"/>
      <path class="cls-3" d="M155.67,223.59v-2.88h2.23v-15.21h-2.23v-2.88h2.23v-6.05c0-1.95.4-3.39,1.21-4.3s2.08-1.37,3.83-1.37h1.43v2.7c-1.06,0-1.79.21-2.19.64s-.6,1.24-.6,2.43v5.95h2.55v2.88h-2.55v15.21h2.23v2.88h-8.13Z"/>
      <path class="cls-3" d="M179.98,217.17c-.2,2.22-.87,3.91-1.99,5.06s-2.67,1.73-4.64,1.73c-2.17,0-3.83-.71-4.97-2.12s-1.71-3.47-1.71-6.18v-4.41c0-2.88.58-5.11,1.73-6.69s2.77-2.38,4.85-2.38c2.22,0,3.92.75,5.1,2.26s1.77,3.69,1.77,6.55v2.84h-9.7v1.36c0,1.97.25,3.4.76,4.3s1.31,1.35,2.4,1.35c.89,0,1.59-.3,2.1-.91s.83-1.53.97-2.77h3.33ZM170.42,211.12h6.09v-1.36c0-1.39-.26-2.48-.79-3.27s-1.24-1.18-2.14-1.18c-1.09,0-1.89.4-2.4,1.21s-.76,2.1-.76,3.88v.73Z"/>
      <path class="cls-3" d="M200.74,213.28v.8c0,3.33-.75,5.86-2.26,7.59s-3.71,2.6-6.62,2.6-5.09-.87-6.6-2.6-2.26-4.27-2.26-7.59v-13.34c0-3.36.72-5.94,2.16-7.75s3.5-2.71,6.19-2.71c1.12,0,2.18.21,3.18.62s1.82,1,2.5,1.77v-1.78h2.91v9.52h-3.16l-.05-.77c-.22-2.12-.7-3.66-1.43-4.62s-1.79-1.43-3.16-1.43c-1.7,0-2.95.52-3.75,1.56s-1.2,2.66-1.2,4.86v14.51c0,2.22.39,3.84,1.18,4.85s2.04,1.52,3.76,1.52c1.61,0,2.84-.55,3.68-1.64s1.27-2.7,1.27-4.83v-1.15h3.68Z"/>
      <path class="cls-3" d="M204.45,232.47v-2.88h2.39l2.53-7.05-5.51-17.04h-1.97v-2.88h7.73v2.88h-2.11l3.68,12.33,4.08-12.33h-2.11v-2.88h7.5v2.88h-2.11l-8.41,24.09h2.41v2.88h-8.11Z"/>
      <path class="cls-3" d="M235.36,216.16v.42c0,2.33-.56,4.14-1.68,5.44s-2.68,1.95-4.68,1.95c-2.27,0-3.98-.74-5.16-2.23s-1.76-3.66-1.76-6.54v-4.8c0-2.66.49-4.69,1.46-6.09s2.38-2.11,4.21-2.11c.73,0,1.45.16,2.14.47s1.42.81,2.17,1.5v-1.55h2.6v6.96h-2.98c-.12-1.45-.44-2.53-.94-3.22s-1.21-1.04-2.13-1.04c-.98,0-1.7.4-2.13,1.2s-.66,2.11-.66,3.94v4.85c0,1.91.25,3.31.74,4.21s1.25,1.35,2.29,1.35,1.85-.38,2.36-1.15.76-1.95.76-3.54h3.38Z"/>
      <path class="cls-3" d="M237.56,223.59v-2.88h2.2v-26.88h-2.2v-2.93h5.91v29.81h2.2v2.88h-8.11Z"/>
      <path class="cls-3" d="M261.52,217.17c-.2,2.22-.87,3.91-1.99,5.06s-2.67,1.73-4.64,1.73c-2.17,0-3.83-.71-4.97-2.12s-1.71-3.47-1.71-6.18v-4.41c0-2.88.58-5.11,1.73-6.69s2.77-2.38,4.85-2.38c2.22,0,3.92.75,5.1,2.26s1.77,3.69,1.77,6.55v2.84h-9.7v1.36c0,1.97.25,3.4.76,4.3s1.31,1.35,2.4,1.35c.89,0,1.59-.3,2.1-.91s.83-1.53.97-2.77h3.33ZM251.95,211.12h6.09v-1.36c0-1.39-.26-2.48-.79-3.27s-1.24-1.18-2.14-1.18c-1.09,0-1.89.4-2.4,1.21s-.76,2.1-.76,3.88v.73Z"/>
    </g>
    <g>
      <path class="cls-5" d="M125.74.09c63.59-2.88,118.12,60.58,89.48,124.77-30.74,68.92-131.57,67.68-165.45,3.9C18.67,70.21,63.02,2.93,125.74.09Z"/>
      <g>
        <path class="cls-1" d="M101.22,29.88c13.17-.72,24,4.61,30.94,15.81,13.13-22.58,49.1-20.18,59.24,3.78,17.34,40.98-34.03,79.58-59.92,103.69-18.49-18.24-49.74-42.03-59.01-66.57-8.87-23.48-.07-55.14,28.76-56.71Z"/>
        <g>
          <path class="cls-5" d="M133.53,52.11c14.53.11,21.01,8.68,22.23,8.71.8.02,4.99-5.54,15.12-1.6,1.06-.42-1.41-7.88,3.9-6.87.88.17,7.92,6.41,7.68,9.28-.35,4.06-12.62,16.66-11.46.92-4.21-1.92-9.2-2.65-13.06.46,25.68,31.64-10.41,69.2-41.36,51.67-29.04-16.44-18.5-62.82,16.96-62.56Z"/>
          <path class="cls-2" d="M130.1,61.05c6.45-.57,13.73,1.03,18.68,5.39-2.26,1.67-14.19,15.79-15.24,16.16-.33.11-4.97-.56-4.24,4.01.47,2.97,5,3.91,6.42,1.15.75-1.47.08-2.86.69-3.9.54-.92,13.01-12.74,14.78-15.24,16.71,18.9-.35,47.27-25.21,40.56-14.84-4-24.09-24-12.26-39.07,3.8-4.84,10.23-8.51,16.38-9.05Z"/>
          <path class="cls-4" d="M130.1,55.09c8.33-.61,16.41,1.8,22.8,7.22-2.76,3.47-1.91,1.29-5.84-.8-20.75-11.04-44.19,4.31-41.36,27.84,1.53,12.72,12.58,22.94,25.32,23.72,22.87,1.4,36.87-21.91,26.01-41.82-2.17-3.98-4.7-3.72-1.49-6.3,18.74,20.93,2.88,53.2-25.44,50.87-14.06-1.16-26.28-13.57-27.38-27.61-1.3-16.63,11.08-31.93,27.38-33.11Z"/>
          <path class="cls-4" d="M174.09,54.63l5.61,6.3c-7.66,11.32-5.54,6.88-5.61-6.3Z"/>
        </g>
      </g>
    </g>
  </g>
</svg>